# xmcd
#
# Track frame offsets:
#	150
#	10968
#	22150
#	30640
#	41008
#	51526
#	63861
#	74686
#	85017
#	97337
#	109105
#	118924
#	130158
#	141443
#	155104
#	166576
#	181190
#	192373
#	203426
#	212640
#	224274
#	245738
#
# Disc length: 4440 seconds
#
# Revision: 0
# Processed by: cddbd v1.5.2PL0 Copyright (c) Steve Scherf et al.
# Submitted via: dBpowerAMP V4.0
#
DISCID=4d115616
DTITLE=Various Artist - Original Jamaican Sound Systen Style - 21 RnB Scorchers
DYEAR=1900
DGENRE=
TTITLE0=Calvin Boze - Safronia B
TTITLE1=Dave Bartholomew - Monkey Speaks His Mind
TTITLE2=Ernie Freeman - Live It Up
TTITLE3=Dodgers - Let's Make A Whole Lot of Love
TTITLE4=Shirley and Lee - I'm Gone
TTITLE5=Fats Domino - Im In The Mood For Love
TTITLE6=Thurston Harris - Little Bitty Pretty One
TTITLE7=Little Anthony - Tears on my Pillow
TTITLE8=Joe Lutchers - Strator-Cruiser
TTITLE9=Jimmie F. Rodgers - Secretly
TTITLE10=Faye Adams - Someone Like You
TTITLE11=James Sugarboy Crawford - It's Over
TTITLE12=Gene and Eunice - The Vow
TTITLE13=Ray Johnson - If You Dont Want Me Baby
TTITLE14=Lynn Hope - Blue Moon
TTITLE15=Amos Milburn - One Scotch, One Bourbon, One Beer
TTITLE16=Calvin Booze - Waiting and Drinking
TTITLE17=Smiley Lewis - One Night
TTITLE18=Fats Domino - Be My Guest
TTITLE19=Jewel King - 3 x 7 =21
TTITLE20=Ernie Freeman - Return To Me
TTITLE21=DATA
EXTD=my name is mike haggar tha i rule
EXTT0=
EXTT1=
EXTT2=
EXTT3=
EXTT4=
EXTT5=
EXTT6=
EXTT7=
EXTT8=
EXTT9=
EXTT10=
EXTT11=
EXTT12=
EXTT13=
EXTT14=
EXTT15=
EXTT16=
EXTT17=
EXTT18=
EXTT19=
EXTT20=
EXTT21=
PLAYORDER=
